<svg width="21" height="23" viewBox="0 0 21 23" fill="none" xmlns="http://www.w3.org/2000/svg">
<path d="M8.81028 5.97805C8.49391 5.56866 8.21838 5.24065 7.99131 5.00315C7.66856 4.66557 7.40148 4.45633 7.06781 4.45633C6.73414 4.45633 6.46707 4.66557 6.14431 5.0031C5.91724 5.2406 5.64167 5.56861 5.32535 5.97805C4.65755 6.84223 3.90851 7.93712 3.21618 9.06091C2.12452 10.8329 0.293213 14.12 0.293213 16.2254C0.293213 19.961 3.33226 23 7.06777 23C10.8033 23 13.8423 19.961 13.8423 16.2254C13.8423 14.1201 12.011 10.8329 10.9194 9.06091C10.2271 7.93712 9.47802 6.84228 8.81028 5.97805Z" fill="#6C95FF"/>
<path d="M19.107 2.59675C18.7335 1.99048 18.3288 1.399 17.9674 0.931271C17.4092 0.208876 17.1454 0 16.7916 0C16.4377 0 16.174 0.208876 15.6158 0.931271C15.2544 1.399 14.8497 1.99044 14.4762 2.59675C13.7463 3.78157 12.8762 5.43254 12.8762 6.56914C12.8762 8.7281 14.6327 10.4845 16.7916 10.4845C18.9505 10.4845 20.707 8.72805 20.707 6.56914C20.707 5.43249 19.8369 3.78157 19.107 2.59675Z" fill="#6C95FF"/>
</svg>
