<svg id="Layer_1" enable-background="new 0 0 512 512" height="512" viewBox="0 0 512 512" width="512" xmlns="http://www.w3.org/2000/svg"><g><path d="m411.445 222.8h-123.311c-8.284 0-15-6.716-15-15v-32.133c0-9.481-7.678-17.133-17.134-17.133-8.284 0-15-6.716-15-15s6.716-15 15-15c30.302 0 58.805-11.815 80.259-33.271 5.737-5.735 10.872-12.096 15.263-18.907 3.369-5.226 9.611-7.832 15.697-6.551 7.242 1.524 13.962 4.511 19.971 8.876 14.854 10.792 22.496 28.299 21.389 45.42 16.628 4.237 30.915 16.915 36.589 34.38 8.198 25.235-4.028 52.958-27.836 63.115-1.861.795-3.863 1.204-5.887 1.204z" fill="#e10300"/><path d="m384.533 0c-56.227 0-104.998 32.504-128.533 79.704-23.535-47.2-72.306-79.704-128.533-79.704-8.284 0-15 6.716-15 15 0 79.145 64.389 143.533 143.533 143.533s143.533-64.388 143.533-143.533c0-8.284-6.716-15-15-15z" fill="#6edc4f"/><path d="m256 158.533c79.145 0 143.533-64.389 143.533-143.533 0-8.284-6.716-15-15-15-56.227 0-104.998 32.504-128.533 79.704z" fill="#25bd2f"/><path d="m191.733 222.8h-96.4c-8.284 0-15-6.716-15-15v-32.133c0-25.823 20.868-47.133 47.134-47.133h32.133c25.748 0 47.134 20.798 47.134 47.133v32.133c-.001 8.284-6.716 15-15.001 15z" fill="#ffae63"/><path d="m288.134 222.8h-96.4c-8.284 0-15-6.716-15-15v-32.133c0-25.799 20.847-47.133 47.133-47.133h32.133c25.755 0 47.134 20.806 47.134 47.133v32.133c0 8.284-6.716 15-15 15z" fill="#ff8725"/><path d="m288.134 222.8c8.284 0 15-6.716 15-15v-32.133c0-26.327-21.379-47.133-47.134-47.133v94.266z" fill="#ff4600"/><path d="m448.8 512h-385.6c-8.284 0-15-6.716-15-15v-289.2c0-8.284 6.716-15 15-15h385.6c8.284 0 15 6.716 15 15v289.2c0 8.284-6.716 15-15 15z" fill="#113834"/><path d="m448.8 192.8h-192.8v319.2h192.8c8.284 0 15-6.716 15-15v-289.2c0-8.284-6.716-15-15-15z" fill="#130f10"/><path d="m368.467 447.733h-48.2c-8.284 0-15-6.716-15-15s6.716-15 15-15h48.2c8.284 0 15 6.716 15 15s-6.716 15-15 15z" fill="#113834"/><path d="m368.467 367.4h-96.4c-8.284 0-15-6.716-15-15s6.716-15 15-15h96.4c8.284 0 15 6.716 15 15s-6.716 15-15 15z" fill="#113834"/><path d="m175.667 407.567h-32.134c-8.284 0-15-6.716-15-15s6.716-15 15-15h32.134c8.284 0 15 6.716 15 15s-6.716 15-15 15z" fill="#0c6052"/><path d="m384.533 287.067h-64.267c-8.284 0-15-6.716-15-15s6.716-15 15-15h64.267c8.284 0 15 6.716 15 15s-6.716 15-15 15z" fill="#113834"/><path d="m191.733 327.233h-64.267c-8.284 0-15-6.716-15-15s6.716-15 15-15h64.267c8.284 0 15 6.716 15 15s-6.715 15-15 15z" fill="#0c6052"/></g></svg>