<svg width="512" height="512" viewBox="0 0 512 512" fill="none" xmlns="http://www.w3.org/2000/svg">
<g clip-path="url(#clip0)">
<path d="M8.11328 171.352L6.91015 167.539C5.55469 163.231 7.91015 158.633 12.1992 157.215L471.805 5.418C476.176 3.97659 480.887 6.38675 482.273 10.7774L487.434 27.1446C488.816 31.5391 486.34 36.2149 481.93 37.5391L18.3672 176.781C14.0391 178.082 9.47266 175.664 8.11328 171.352V171.352Z" fill="#E88C38"/>
<path d="M14.7344 192.77L15.2852 196.727C15.9102 201.203 20.0117 204.348 24.4922 203.785L504.766 143.641C509.336 143.07 512.555 138.871 511.922 134.309L509.559 117.312C508.922 112.75 504.68 109.59 500.129 110.285L21.668 183.465C17.2031 184.148 14.1133 188.293 14.7344 192.77V192.77Z" fill="#E88C38"/>
<path d="M214.262 153.777C214.262 137.75 217.828 130.172 221.957 121.395C226.008 112.781 231.125 98.9454 232.609 81.543C232.957 77.4493 229.027 74.3204 225.129 75.6055L212.418 79.8047C210.246 80.5235 208.707 82.4727 208.527 84.754C207.629 96.1251 204.566 102.652 201.105 110.012C196.316 120.191 190.887 131.731 190.887 153.777C190.887 175.828 196.313 187.367 201.102 197.551C205.23 206.328 208.797 213.906 208.797 229.938C208.797 245.973 205.23 253.551 201.102 262.328C196.313 272.512 190.887 284.051 190.887 306.098C190.887 313.055 196.117 318.691 202.574 318.691C209.031 318.691 214.262 313.055 214.262 306.098C214.262 290.066 217.828 282.488 221.957 273.711C226.746 263.527 232.172 251.988 232.172 229.938C232.172 207.891 226.746 196.352 221.957 186.168C217.828 177.391 214.262 169.809 214.262 153.777V153.777Z" fill="#FFC804"/>
<path d="M162.023 153.777C162.023 137.75 165.586 130.172 169.715 121.395C172.488 115.5 175.473 109.133 177.492 100.535C178.52 96.1759 174.41 92.3595 170.156 93.7618L156.012 98.4337C154.391 98.9688 153.098 100.215 152.48 101.809C151.391 104.621 150.156 107.262 148.863 110.012C144.074 120.191 138.645 131.731 138.645 153.777C138.645 175.828 144.074 187.367 148.863 197.551C152.988 206.328 156.555 213.906 156.555 229.938C156.555 245.969 152.988 253.551 148.863 262.328C144.074 272.508 138.645 284.051 138.645 306.098C138.645 313.055 143.879 318.691 150.332 318.691C156.789 318.691 162.023 313.055 162.023 306.098C162.023 290.066 165.586 282.488 169.715 273.711C174.504 263.527 179.934 251.984 179.934 229.938C179.934 207.891 174.504 196.348 169.715 186.168C165.586 177.391 162.023 169.809 162.023 153.777V153.777Z" fill="#FFC804"/>
<path d="M109.781 153.777C109.781 137.75 113.348 130.172 117.477 121.395C117.492 121.359 117.508 121.324 117.527 121.285C119.656 116.754 115.328 111.871 110.57 113.441L95.0391 118.574C93.3828 119.121 92.0625 120.383 91.4688 122.02C88.6211 129.914 86.4062 139.699 86.4062 153.777C86.4062 175.828 91.832 187.367 96.6211 197.551C100.75 206.328 104.316 213.906 104.316 229.938C104.316 245.969 100.75 253.551 96.6211 262.328C91.832 272.508 86.4062 284.051 86.4062 306.098C86.4062 313.055 91.6367 318.691 98.0938 318.691C104.551 318.691 109.781 313.055 109.781 306.098C109.781 290.066 113.348 282.488 117.477 273.711C122.266 263.527 127.691 251.984 127.691 229.938C127.691 207.891 122.266 196.348 117.477 186.168C113.348 177.391 109.781 169.809 109.781 153.777V153.777Z" fill="#FFC804"/>
<path d="M57.5391 153.777C57.5391 148.113 57.9844 143.504 58.7422 139.524C59.5625 135.231 55.5117 131.629 51.3594 133L38.6289 137.203C36.4844 137.914 34.9727 139.82 34.7383 142.07C34.3711 145.621 34.1641 149.5 34.1641 153.777C34.1641 175.828 39.5898 187.367 44.3789 197.551C48.5078 206.328 52.0742 213.906 52.0742 229.938C52.0742 245.973 48.5078 253.551 44.3789 262.328C39.5898 272.512 34.1641 284.051 34.1641 306.098C34.1641 313.055 39.3945 318.692 45.8516 318.692C52.3086 318.692 57.5391 313.055 57.5391 306.098C57.5391 290.067 61.1055 282.488 65.2344 273.711C70.0234 263.527 75.4492 251.988 75.4492 229.938C75.4492 207.891 70.0234 196.352 65.2344 186.168C61.1055 177.391 57.5391 169.809 57.5391 153.777V153.777Z" fill="#FFC804"/>
<path d="M4.46484 285.453C1.82031 285.453 -0.242195 287.73 0.023431 290.359C4.60546 336.203 24.6406 420.5 107.34 473.199C107.984 473.609 108.684 473.922 109.406 474.137V491.945C109.406 500.695 116.5 507.793 125.254 507.793H326.395C335.145 507.793 342.238 500.695 342.238 491.945V474.109C342.934 473.891 343.605 473.594 344.223 473.199C426.922 420.5 446.961 336.203 451.543 290.359C451.805 287.73 449.742 285.453 447.102 285.453H4.46484Z" fill="#FF8B4A"/>
<path d="M447.102 285.453H387.43C390.074 285.453 392.133 287.73 391.871 290.359C387.289 336.203 367.254 420.5 284.555 473.199C283.934 473.594 283.266 473.891 282.57 474.109V491.945C282.57 500.695 275.477 507.793 266.723 507.793H326.395C335.145 507.793 342.238 500.695 342.238 491.945V474.109C342.934 473.891 343.605 473.594 344.223 473.199C426.922 420.5 446.961 336.203 451.543 290.359C451.805 287.73 449.742 285.453 447.102 285.453Z" fill="#F27C3A"/>
<path d="M342.238 491.945V474.113H109.336C109.359 474.121 109.383 474.133 109.406 474.141V491.945C109.406 500.699 116.5 507.793 125.254 507.793H326.395C335.145 507.793 342.238 500.699 342.238 491.945Z" fill="#F27C3A"/>
<path d="M282.57 491.945C282.57 500.695 275.477 507.793 266.727 507.793H326.395C335.145 507.793 342.238 500.695 342.238 491.945V474.113H282.57V491.945Z" fill="#EA671E"/>
</g>
<defs>
<clipPath id="clip0">
<rect width="512.001" height="512" fill="white"/>
</clipPath>
</defs>
</svg>
