<svg width="512" height="512" viewBox="0 0 512 512" fill="none" xmlns="http://www.w3.org/2000/svg">
<path d="M386.963 93.7758L408.908 16.718C410.379 11.5537 407.298 6.19433 402.096 4.86611L384.207 0.299358C379.005 -1.02887 373.732 2.1983 372.548 7.43484L339.19 154.92L322.717 229.34H340.995L386.963 93.7758Z" fill="#FDB62F"/>
<path d="M366.484 178.579L473.351 25.5583C476.426 21.1567 475.261 15.0852 470.776 12.1326L455.355 1.98148C450.87 -0.970131 444.833 0.36016 442.005 4.92484L347.522 157.444L302.456 237.737L322.717 245.316L366.484 178.579Z" fill="#FFC804"/>
<path d="M435.218 249.179L433.303 240.04C430.675 227.488 421.273 217.446 408.921 213.999L408.517 213.887C405.246 212.975 402.612 210.547 401.435 207.362C396.451 193.878 383.597 184.924 369.221 184.924L365.012 175.164C359.582 162.576 347.186 154.424 333.478 154.424H332.647C326.593 154.424 321.179 150.656 319.077 144.979C314.009 131.294 300.844 122.306 286.253 122.569C282.667 122.634 279.2 121.28 276.607 118.803L267.503 110.106C254.23 97.4261 233.331 97.4261 220.058 110.106L210.955 118.803C208.361 121.28 204.895 122.633 201.308 122.569C186.718 122.306 173.553 131.294 168.485 144.979C166.382 150.656 160.968 154.424 154.914 154.424H154.084C140.375 154.424 127.979 162.577 122.55 175.164L118.34 184.924C103.964 184.924 91.11 193.878 86.1263 207.362C84.9487 210.547 82.315 212.975 79.0445 213.887L78.6409 213.999C66.2896 217.446 56.8867 227.488 54.2581 240.04L52.3437 249.179V300.378H435.219V249.179H435.218Z" fill="#FAF7F7"/>
<path d="M100.274 270.669L102.189 261.53C104.817 248.978 114.219 238.936 126.572 235.489L126.975 235.377C130.246 234.465 132.88 232.037 134.057 228.852C139.041 215.368 151.895 206.414 166.271 206.414L170.481 196.654C175.91 184.066 188.306 175.914 202.014 175.914H202.845C208.899 175.914 214.313 172.146 216.415 166.469C221.484 152.784 234.648 143.796 249.239 144.06C252.825 144.125 256.292 142.771 258.886 140.293L267.989 131.596C273.154 126.662 279.503 123.665 286.078 122.571C282.564 122.582 279.151 121.233 276.606 118.802L267.502 110.105C254.228 97.4251 233.33 97.4251 220.056 110.105L210.953 118.802C208.359 121.28 204.893 122.632 201.306 122.569C186.715 122.305 173.551 131.293 168.483 144.978C166.38 150.655 160.966 154.423 154.912 154.423H154.082C140.373 154.423 127.977 162.576 122.548 175.163L118.338 184.923C103.962 184.923 91.1079 193.877 86.1242 207.361C84.9467 210.546 82.3129 212.974 79.0424 213.886L78.6389 213.998C66.2875 217.445 56.8847 227.487 54.2561 240.039L52.3416 249.178V300.378H100.273V270.669H100.274Z" fill="#F9F3F1"/>
<path d="M347.706 493.746C347.706 503.827 339.535 511.999 329.454 511.999H158.106C148.026 511.999 139.854 503.827 139.854 493.746V401.632H347.708V493.746H347.706Z" fill="#E7833C"/>
<path d="M36.9292 259.432V304.439C36.9292 397.24 112.154 472.465 204.955 472.465H282.605C375.405 472.465 450.63 397.24 450.63 304.439V259.432C450.63 253.767 446.038 249.174 440.382 249.174H47.1773C41.5218 249.174 36.9292 253.767 36.9292 259.432Z" fill="#E7833C"/>
<path d="M165.606 284.897H397.818V300.377H165.606C161.332 300.377 157.866 296.912 157.866 292.637C157.866 288.362 161.332 284.897 165.606 284.897Z" fill="#FFC804"/>
<path d="M141.758 457.926H219.408C312.209 457.926 387.434 382.701 387.434 289.9V249.174H440.382C446.038 249.174 450.63 253.767 450.63 259.432V304.439C450.63 397.24 375.405 472.465 282.605 472.465H204.955C180.485 472.465 157.241 467.23 136.272 457.826C138.094 457.885 139.921 457.926 141.758 457.926Z" fill="#EA671E"/>
<path d="M225.645 223.876C227.118 223.876 228.607 223.456 229.925 222.58L232.198 221.068C238.841 216.649 247.454 217.074 253.629 222.126C256.938 224.833 261.814 224.344 264.522 221.037C267.229 217.728 266.74 212.852 263.433 210.145C251.962 200.759 235.963 199.97 223.624 208.179L221.351 209.691C217.791 212.058 216.826 216.863 219.194 220.423C220.685 222.662 223.141 223.876 225.645 223.876Z" fill="#F9F3F1"/>
<path d="M188.331 184.693C189.803 184.693 191.293 184.273 192.61 183.396L194.068 182.427C197.301 180.274 201.493 180.483 204.498 182.942C207.807 185.649 212.682 185.161 215.391 181.852C218.098 178.544 217.609 173.667 214.301 170.96C206 164.168 194.422 163.596 185.493 169.538L184.036 170.506C180.477 172.874 179.511 177.679 181.878 181.237C183.37 183.48 185.827 184.693 188.331 184.693Z" fill="#F9F3F1"/>
<path d="M136.033 221.977C137.506 221.977 138.994 221.557 140.312 220.681L141.768 219.713C145.003 217.56 149.194 217.767 152.199 220.226C155.507 222.934 160.384 222.445 163.091 219.138C165.798 215.83 165.31 210.953 162.002 208.246C153.702 201.453 142.124 200.882 133.193 206.823L131.738 207.792C128.179 210.159 127.212 214.963 129.579 218.523C131.071 220.764 133.53 221.977 136.033 221.977V221.977Z" fill="#F9F3F1"/>
<path d="M298.196 184.693C300.699 184.693 303.157 183.48 304.647 181.238C307.014 177.679 306.048 172.875 302.489 170.507L301.032 169.538C292.103 163.597 280.525 164.17 272.225 170.961C268.916 173.668 268.428 178.545 271.135 181.853C273.842 185.163 278.718 185.649 282.027 182.943C285.033 180.484 289.225 180.278 292.458 182.427L293.915 183.396C295.235 184.274 296.724 184.693 298.196 184.693V184.693Z" fill="#F3EAE6"/>
<path d="M350.494 221.977C352.999 221.977 355.455 220.763 356.946 218.522C359.314 214.962 358.347 210.158 354.787 207.79L353.331 206.822C344.402 200.883 332.825 201.453 324.524 208.246C321.215 210.953 320.728 215.83 323.435 219.138C326.143 222.446 331.019 222.934 334.327 220.226C337.331 217.767 341.524 217.561 344.757 219.712L346.215 220.681C347.532 221.558 349.021 221.977 350.494 221.977V221.977Z" fill="#F3EAE6"/>
<path d="M36.9292 284.897H131.824C136.098 284.897 139.564 288.362 139.564 292.637C139.564 296.912 136.098 300.377 131.824 300.377H36.9292V284.897Z" fill="#FFC804"/>
<path d="M387.434 289.9V284.897H450.63V300.377H387.099C387.312 296.911 387.434 293.421 387.434 289.9Z" fill="#FDB62F"/>
</svg>
