<svg width="472" height="472" viewBox="0 0 472 472" fill="none" xmlns="http://www.w3.org/2000/svg">
<path d="M72 144H200V160H72V144Z" fill="#B2C3C9"/>
<path d="M72 48H200V64H72V48Z" fill="#B2C3C9"/>
<path d="M72 80H200V96H72V80Z" fill="#B2C3C9"/>
<path d="M72 112H200V128H72V112Z" fill="#B2C3C9"/>
<path d="M0 344H464C464 388.183 428.183 424 384 424H80C35.817 424 0 388.183 0 344Z" fill="#7E3C17"/>
<path d="M302.632 80C290.258 80.033 278.384 75.116 269.656 66.344C257.935 54.561 241.988 47.956 225.368 48H192V160H225.368C241.988 160.045 257.935 153.439 269.656 141.656C278.384 132.884 290.258 127.967 302.632 128H472V80H302.632Z" fill="#B2C3C9"/>
<path d="M160 80H192V344H160V80Z" fill="#FED382"/>
<path d="M120 80H152V344H120V80Z" fill="#FDB62F"/>
<path d="M80 80H112V344H80V80Z" fill="#FEE2AC"/>
<path d="M240 312H432C440.837 312 448 319.163 448 328C448 336.837 440.837 344 432 344H240C231.163 344 224 336.837 224 328C224 319.164 231.163 312 240 312Z" fill="#EDA721"/>
<path d="M256 280H416C424.837 280 432 287.163 432 296C432 304.837 424.837 312 416 312H256C247.163 312 240 304.837 240 296C240 287.164 247.163 280 256 280Z" fill="#FDB62F"/>
<path d="M392 264C392 255.163 384.837 248 376 248H355.88C343.149 247.998 330.939 253.055 321.936 262.056L294.056 289.936C285.055 298.939 279.998 311.149 280 323.88V376C280 384.837 287.163 392 296 392C304.837 392 312 384.837 312 376V326.624C312.001 322.381 313.687 318.312 316.688 315.312L347.312 284.688C350.312 281.687 354.381 280.001 358.624 280H376C384.837 280 392 272.837 392 264Z" fill="#FED382"/>
</svg>
